<svg id="Layer_1" enable-background="new 0 0 512.022 512.022" height="512" viewBox="0 0 512.022 512.022" width="512" xmlns="http://www.w3.org/2000/svg"><path d="m458.231 247.756c-23.025 0-45.87 8.964-63.003 26.097l-53.146 53.146c-10.415 10.416-28.224 3.039-28.224-11.69v-269.477c0-20.255-15.945-37.261-36.193-37.796-21.081-.557-38.207 16.364-38.207 37.187v198.4c0-20.545-16.655-37.2-37.2-37.2-20.488 0-37.2 16.599-37.2 37.2 0-20.488-16.599-37.2-37.2-37.2-20.545 0-37.2 16.655-37.2 37.2v-111.6c0-18.211-14.754-33.067-33.067-33.067-18.262 0-33.067 14.805-33.067 33.067v235.6c0 75.332 61.068 136.4 136.4 136.4h49.965c39.464 0 77.312-15.677 105.217-43.583l162.79-162.791c18.25-18.247 5.447-49.893-20.665-49.893z" fill="#f9cfac"/><g fill="#ffe4cc"><path d="m165.062 243.623v82.67c0 18.481-13.426 33.589-30.7 36.63-17.45-3.07-30.7-18.31-30.7-36.63v-110.93c23.856-20.45 61.4-3.656 61.4 28.26z"/><path d="m484.882 264.962c-3.115 6.991 9.178-6.468-168.77 171.48-27.91 27.9-65.76 43.58-105.22 43.58h-34.97c-75.33 0-136.4-61.07-136.4-136.4v-239.29c21.573-14.175 51.14 1.152 51.14 27.69v215.27c0 34.002 43.002 50.815 65.7 23.9 3.14-2 6.05-4.32 8.7-6.91 28.517 27.924 76.771 15.649 88.21-22.87 3.146-10.611 2.72 5.462 2.72-327.13 24.495-16.422 57.87 1.224 57.87 31.55v269.48c0 14.72 17.81 22.1 28.22 11.69l53.15-53.15c16.71-16.71 39.37-26.1 63-26.1 11.848 0 22.072 7.054 26.65 17.21z"/><path d="m239.462 243.623v82.67c0 17.935-12.664 32.723-29.2 36.33-16.7-3.65-29.2-18.54-29.2-36.33v-113.24c24.275-16.855 58.4.261 58.4 30.57z"/></g><path d="m458.232 239.753c-25.933 0-50.315 10.102-68.657 28.442l-53.15 53.15c-5.367 5.368-14.563 1.562-14.563-6.033v-67.4c0-4.418-3.582-8-8-8s-8 3.582-8 8v67.4c0 21.842 26.41 32.813 41.876 17.348l53.15-53.15c15.32-15.32 35.685-23.757 57.343-23.757 14.988 0 25.462 15.242 19.606 29.365-2.299 5.561 10.829-8.546-167.382 169.666-26.602 26.593-61.961 41.238-99.564 41.238h-49.97c-70.8 0-128.4-57.601-128.4-128.4 0-154.355.003-45.953.003-235.6 0-13.821 11.245-25.066 25.067-25.066s25.066 11.245 25.066 25.066v194.267c0 24.924 20.277 45.2 45.2 45.2 15.41 0 29.037-7.757 37.2-19.566 6.299 9.114 15.855 15.803 26.974 18.385-20.551 23.226-32.041 53.161-32.041 84.714 0 4.418 3.582 8 8 8s8-3.582 8-8c0-33.144 14.489-64.248 39.796-85.604 18.334-5.764 31.671-22.917 31.671-43.13 0-1.334.003-40.317.003-281.066 0-7.799 3.037-15.136 8.542-20.649 18.65-18.622 49.858-4.787 49.858 21.259v138.301c0 4.418 3.582 8 8 8s8-3.582 8-8v-138.301c0-40.346-48.512-61.189-77.171-32.572-8.531 8.543-13.229 19.895-13.229 31.963v163.94c-20.419-17.331-51.187-13.189-66.403 8.826-15.228-22.031-45.996-26.143-66.4-8.829v-77.138c0-22.645-18.422-41.066-41.066-41.066-22.645 0-41.067 18.422-41.067 41.066 0 211.539-.003 38.188-.003 235.6 0 79.623 64.778 144.4 144.4 144.4h49.97c41.876 0 81.252-16.309 110.877-45.923 176.97-176.97 166.823-165.107 170.853-174.862 10.191-24.573-7.935-51.484-34.389-51.484zm-255.974-25.33c16.101 0 29.2 13.099 29.2 29.199v82.667c0 16.101-13.099 29.2-29.2 29.2s-29.2-13.1-29.2-29.2v-82.667c0-16.101 13.1-29.199 29.2-29.199zm-74.4 0c16.101 0 29.2 13.099 29.2 29.199v82.667c0 16.101-13.099 29.2-29.2 29.2s-29.2-13.1-29.2-29.2c0-15.494 0-66.553 0-82.667 0-16.101 13.099-29.199 29.2-29.199z"/><path d="m313.862 207.912c-4.193 0-8 3.277-8 8.221 0 4.418 3.582 8 8 8s8-3.582 8-8c0-4.925-3.791-8.221-8-8.221z"/></svg>